<svg width="100%" height="100%" viewBox="0 0 800 600" xmlns="http://www.w3.org/2000/svg">
  <defs>
    <linearGradient id="grad1" x1="0%" y1="0%" x2="100%" y2="100%">
      <stop offset="0%" style="stop-color:#6366f1;stop-opacity:0.2" />
      <stop offset="100%" style="stop-color:#8b5cf6;stop-opacity:0.1" />
    </linearGradient>
  </defs>
  <circle cx="400" cy="300" r="250" fill="url(#grad1)" />
  <g transform="translate(250,150)">
    <rect x="0" y="0" width="300" height="200" rx="10" fill="white" stroke="#e5e7eb" stroke-width="2"/>
    <rect x="20" y="20" width="260" height="30" rx="5" fill="#f3f4f6"/>
    <rect x="20" y="70" width="200" height="30" rx="5" fill="#f3f4f6"/>
    <rect x="20" y="120" width="230" height="30" rx="5" fill="#f3f4f6"/>
  </g>
  <g transform="translate(400,250)">
    <rect x="0" y="0" width="200" height="150" rx="10" fill="white" stroke="#e5e7eb" stroke-width="2"/>
    <path d="M20,20 L180,20 M20,50 L140,50 M20,80 L160,80" stroke="#f3f4f6" stroke-width="15" stroke-linecap="round"/>
  </g>
  <g transform="translate(200,300)">
    <rect x="0" y="0" width="150" height="100" rx="10" fill="white" stroke="#e5e7eb" stroke-width="2"/>
    <circle cx="75" cy="50" r="30" fill="#6366f1" opacity="0.2"/>
    <path d="M60,50 L90,50 M75,35 L75,65" stroke="#6366f1" stroke-width="4" stroke-linecap="round"/>
  </g>
</svg> 